Coordinates
version=1
nRows=12
nColumns=24
inDegrees=yes

Units are S.I. units (second, meters, Newtons, ...)
Angles are in degrees.

endheader
time	pelvis_tilt	pelvis_list	pelvis_rotation	pelvis_tx	pelvis_ty	pelvis_tz	hip_flexion_r	hip_adduction_r	hip_rotation_r	knee_angle_r	ankle_angle_r	subtalar_angle_r	mtp_angle_r	hip_flexion_l	hip_adduction_l	hip_rotation_l	knee_angle_l	ankle_angle_l	subtalar_angle_l	mtp_angle_l	lumbar_extension	lumbar_bending	lumbar_rotation
      0.78300000	     -7.19306769	      2.60504158	      2.15014111	     -0.39798248	      1.06523062	      0.29944197	     17.81012856	     -0.49071261	      0.93453641	    -19.78013585	     10.51045033	     -5.84477152	      4.56794206	     23.71536966	     -1.06178736	     -4.59304731	    -68.42393618	      9.20309958	      3.76750780	      1.97016144	    -11.66970331	      1.82173073	      1.20642452
      0.78716667	     -7.13275513	      2.70504532	      2.04942418	     -0.39304182	      1.06601168	      0.29984896	     17.34568134	     -0.55407708	      0.99319541	    -19.54097344	     10.66293193	     -5.71808335	      4.54603725	     24.12797893	     -0.99653076	     -4.77566774	    -68.01738235	      9.50891376	      4.06582461	      2.00898217	    -11.73332695	      1.64044530	      1.48862341
      0.79133333	     -7.10508866	      2.83801390	      1.93050271	     -0.38808484	      1.06669379	      0.30029426	     16.93251325	     -0.65001501	      1.05941290	    -19.33372724	     10.77544664	     -5.64150425	      4.53652274	     24.55560368	     -0.90527662	     -4.99494900	    -67.56019023	      9.83689194	      4.29877314	      2.03324604	    -11.73579262	      1.42283972	      1.58774591
      0.79550000	     -7.02687269	      2.94239871	      1.81313187	     -0.38313877	      1.06744424	      0.30071652	     16.45275956	     -0.71768151	      1.12208988	    -19.09867735	     10.93599859	     -5.51663107	      4.51267316	     24.92194074	     -0.84777055	     -5.20271780	    -67.06642132	     10.12919700	      4.60890560	      2.07784342	    -11.80993462	      1.23992850	      1.88237849
      0.79966667	     -7.00058370	      3.06757157	      1.68328198	     -0.37819851	      1.06806266	      0.30115231	     16.04220035	     -0.80652778	      1.20675388	    -18.88532232	     11.04348134	     -5.43909173	      4.50285185	     25.33057684	     -0.76950242	     -5.42809907	    -66.53143067	     10.42993576	      4.84367086	      2.10319333	    -11.81750698	      1.03113027	      1.98029811
      0.80383333	     -6.93039511	      3.16695492	      1.55695397	     -0.37326368	      1.06872840	      0.30156794	     15.57528523	     -0.87051733	      1.27701791	    -18.65275885	     11.19436862	     -5.32541717	      4.47626676	     25.68442666	     -0.72024193	     -5.64047472	    -65.96158062	     10.70109741	      5.12836515	      2.15279095	    -11.88399115	      0.85565609	      2.28306241
      0.80800000	     -6.91336735	      3.28314825	      1.42393630	     -0.36834022	      1.06925714	      0.30198768	     15.17700619	     -0.95309554	      1.36376499	    -18.43807774	     11.30353101	     -5.25291953	      4.46671922	     26.08435530	     -0.65353805	     -5.86457003	    -65.35462668	     10.97252149	      5.35422503	      2.17755381	    -11.87902988	      0.65620849	      2.37323539
      0.81216667	     -6.84295531	      3.37684357	      1.29393634	     -0.36342452	      1.06984216	      0.30237926	     14.71632947	     -1.01578328	      1.43376687	    -18.21504171	     11.45655884	     -5.14446713	      4.44118707	     26.41772400	     -0.61104786	     -6.07447707	    -64.71397617	     11.21885494	      5.62130109	      2.22584717	    -11.94666080	      0.49778176	      2.66785366
      0.81633333	     -6.79525208	      3.48681697	      1.16046033	     -0.35851746	      1.07035470	      0.30277111	     14.28682952	     -1.09784345	      1.50778013	    -18.00224754	     11.59790691	     -5.04949477	      4.41932848	     26.76229919	     -0.55043629	     -6.29031196	    -64.03146733	     11.44582993	      5.84494687	      2.26754677	    -11.98060138	      0.30912418	      2.84243675
      0.82050000	     -6.75324228	      3.57908081	      1.03329233	     -0.35361843	      1.07081674	      0.30313499	     13.86212998	     -1.16459446	      1.57485221	    -17.78599056	     11.73087864	     -4.95560945	      4.39794453	     27.10630293	     -0.50389908	     -6.48771327	    -63.32182430	     11.66342229	      6.05983825	      2.30769556	    -12.01013416	      0.14768440	      3.02042122
      0.82466667	     -6.70704212	      3.68072390	      0.90237461	     -0.34873461	      1.07126166	      0.30349453	     13.43840760	     -1.24284684	      1.64699688	    -17.57775766	     11.85162326	     -4.87361052	      4.38320909	     27.43056380	     -0.44568085	     -6.68436477	    -62.56787969	     11.86435222	      6.25551676	      2.33718421	    -12.04547377	     -0.01471085	      3.15248075
      0.82883333	     -6.66724101	      3.75661860	      0.78264215	     -0.34385396	      1.07164048	      0.30381585	     13.01629224	     -1.29955687	      1.69882031	    -17.35955142	     12.00324755	     -4.76587529	      4.36085729	     27.75981353	     -0.40927876	     -6.85816774	    -61.79821716	     12.04144444	      6.43672759	      2.37698376	    -12.07735419	     -0.16511632	      3.36792136
